<svg width="192" height="50" viewBox="0 0 192 50" fill="none" xml:space="preserve" xmlns="http://www.w3.org/2000/svg">
    <path d="M 27.133644,0 C 12.454387,0.01093114 -2.799005,12.301669 0.43900314,32.127946 l 9.06140256,8.711276 2.6774433,7.951013 12.199585,0.09009 c 1.355137,1.529422 3.214163,1.502972 4.498785,-0.146845 l 13.193653,0.0229 2.546686,-8.131706 8.607355,-8.224916 C 56.847031,14.854673 42.71878,0.01852963 27.133644,0 Z m 47.49849,10.973323 c -3.821314,0 -6.833501,0.480838 -9.036177,1.442942 -2.185992,0.945515 -3.829358,2.256119 -4.930699,3.931506 -1.084651,1.658796 -1.627261,3.425538 -1.627261,5.299979 0,2.853134 1.068146,5.200554 3.204077,7.041821 2.119242,1.841265 5.665502,3.317407 10.638217,4.428801 3.037024,0.663518 4.972525,1.368222 5.806873,2.11468 0.83435,0.74646 1.251465,1.59252 1.251465,2.538035 0,0.995278 -0.442215,1.874445 -1.326623,2.637492 -0.867722,0.746459 -2.111048,1.120089 -3.729682,1.120089 -2.169305,0 -3.837769,-0.73833 -5.005857,-2.214661 -0.717539,-0.91234 -1.193392,-2.239238 -1.427008,-3.980974 l -10.788022,0.67174 c 0.317051,3.682532 1.677335,6.717842 4.080257,9.106511 2.402921,2.388669 6.724678,3.583136 12.9656,3.583136 3.554321,0 6.499747,-0.506059 8.835921,-1.517926 2.336174,-1.028452 4.15472,-2.529293 5.456301,-4.503263 1.301583,-1.97397 1.952615,-4.130635 1.952615,-6.46954 0,-1.990556 -0.492415,-3.790405 -1.476945,-5.399439 -0.967843,-1.609034 -2.527888,-2.952746 -4.680506,-4.030965 -2.135931,-1.094807 -5.682191,-2.173138 -10.638217,-3.234768 -2.002433,-0.414702 -3.270345,-0.86243 -3.804326,-1.343481 -0.55067,-0.464464 -0.826245,-0.986816 -0.826245,-1.567396 0,-0.796221 0.333796,-1.468338 1.001274,-2.015743 0.667479,-0.56399 1.66033,-0.845663 2.978598,-0.845663 1.601948,0 2.853296,0.373107 3.754392,1.119569 0.917782,0.746458 1.518616,1.940925 1.802293,3.583136 L 89.7506,21.84667 C 89.283367,18.064611 87.814664,15.310973 85.344995,13.585822 82.892012,11.844085 79.321168,10.973323 74.632134,10.973323 Z m 21.351078,0.622274 V 48.07267 H 106.17047 V 35.382503 c 0,-2.405257 0.38399,-4.072156 1.15159,-5.001085 0.7676,-0.928926 1.76848,-1.39347 3.00331,-1.39347 1.11803,0 1.9859,0.348408 2.60331,1.045103 0.61742,0.680109 0.92612,1.849355 0.92612,3.508154 V 48.07267 h 10.2377 V 31.277074 c 0,-3.466887 -0.80111,-6.038176 -2.40305,-7.71356 -1.58526,-1.675388 -3.76271,-2.513039 -6.53274,-2.513039 -1.86894,0 -3.48772,0.306893 -4.85605,0.920648 -1.36833,0.613754 -2.74517,1.633758 -4.13019,3.060326 V 11.595597 Z m 68.733738,0 V 48.07267 h 10.21248 V 11.595597 Z m 17.07057,0 V 48.07267 H 192 V 11.595597 Z m -37.87082,9.454878 c -4.68903,0 -8.36881,1.277496 -11.03872,3.832044 -2.65323,2.55455 -3.97988,5.896753 -3.97988,10.027161 1e-5,2.902897 0.65906,5.432668 1.97733,7.589105 1.33495,2.139849 3.01196,3.707426 5.03108,4.702705 2.01912,0.978692 4.78937,1.467935 8.31032,1.467935 4.05493,0 7.167,-0.572272 9.3363,-1.716843 2.16931,-1.16116 4.02149,-3.068735 5.55669,-5.722812 l -10.03694,-0.92065 c -0.6341,0.796224 -1.2264,1.352204 -1.77707,1.667375 -0.90109,0.497639 -1.85228,0.746205 -2.8535,0.746205 -1.58526,0 -2.87025,-0.572274 -3.85478,-1.716845 -0.70085,-0.796222 -1.14307,-2.006982 -1.32662,-3.632607 h 20.42496 v -1.144562 c 0,-3.483474 -0.57573,-6.311735 -1.72713,-8.484759 -1.1514,-2.173025 -2.82841,-3.832038 -5.03109,-4.976609 -2.20267,-1.144571 -5.20632,-1.716843 -9.01095,-1.716843 z m 0.42522,5.996715 c 1.40171,0 2.52808,0.42303 3.37911,1.269018 0.86772,0.845988 1.4018,2.247507 1.60204,4.204886 h -10.03745 c 0.16687,-1.575857 0.5594,-2.761919 1.17681,-3.558141 0.96785,-1.277275 2.26086,-1.915763 3.87949,-1.915763 z" fill="#F40304" />
    <path d="m 25.521295,45.129784 -10.728374,0.04096 -2.09404,-6.536356 -7.8395344,-7.693084 C 4.3255811,28.302747 4.5000782,22.92037 5.6112972,20.964711 L 19.371103,36.612955 6.4428143,18.471514 C 6.0757792,16.99233 9.3700818,11.957647 10.282019,11.957647 L 22.493119,35.412508 12.219389,9.6123563 C 12.895247,8.6417746 16.360531,6.4518874 17.970123,6.0613257 L 25.076531,35.097075 20.730826,5.0522182 C 21.593181,4.4283777 24.579601,3.960994 25.938694,4.3009659 L 27.165023,35.059565 28.580684,4.3304107 c 1.722831,-0.010238 4.656852,0.7325333 5.218498,1.4612889 L 29.36937,35.044259 36.473124,6.4498958 c 1.020779,0.431567 5.257009,2.2866917 5.319803,3.3702323 L 31.610546,35.572273 44.008516,11.941751 c 0.728844,0.6672 3.937178,5.396921 3.937178,5.855682 l -13.265752,19.23932 14.5431,-16.286724 c 1.106087,1.077619 1.204034,9.433144 0.538116,10.075917 l -7.685782,7.383503 -2.009626,6.827989 -11.526065,0.08201 c -0.445407,1.1937 -2.550029,1.28877 -3.01839,0.01035 z" fill="#FAF70C" />
</svg>