<svg width="48" height="45" viewBox="0 0 48 45" fill="none" xml:space="preserve" xmlns="http://www.w3.org/2000/svg">
    <path d="M 24.209719,0 C 11.112301,0.00983802 -2.4973838,11.071501 0.39169607,28.915149 l 8.08494453,7.840145 2.3889214,7.15591 10.884956,0.08109 c 1.209107,1.37648 2.867805,1.352676 4.013996,-0.13216 l 11.771904,0.02063 2.272254,-7.318538 7.679823,-7.402421 C 50.721186,13.369204 38.115399,0.01667667 24.209719,0 Z" fill="#F40304" />
    <path d="M 22.771117,40.6168 13.198834,40.65366 11.330448,34.770939 4.3357029,27.847165 C 3.8594559,25.472469 4.0151493,20.628331 5.006623,18.868237 L 17.28367,32.951655 5.7485357,16.624361 c -0.3274833,-1.331265 2.6118248,-5.86248 3.4254914,-5.86248 L 20.069257,31.871253 10.902626,8.6511194 C 11.505653,7.7775962 14.597518,5.806698 16.03366,5.4551924 L 22.37428,31.587364 18.496869,4.546996 C 19.266297,3.9855394 21.9309,3.5648945 23.143537,3.8708688 L 24.237716,31.553605 25.500825,3.8973691 c 1.537179,-0.00922 4.155029,0.65928 4.656152,1.3151599 l -3.952454,26.3273 6.338252,-25.7349233 c 0.91078,0.3884099 4.690511,2.0580222 4.746542,3.0332085 L 28.204189,32.015042 39.266151,10.747575 c 0.650306,0.60048 3.512907,4.857228 3.512907,5.270113 L 30.942826,33.333073 43.918762,18.675024 c 0.986893,0.969857 1.074284,8.489828 0.480126,9.068324 l -6.857561,6.64515 -1.793068,6.14519 -10.284014,0.07381 c -0.39741,1.07433 -2.275238,1.159893 -2.693128,0.0093 z" fill="#FAF70C" />
</svg>