<?xml version="1.0" encoding="UTF-8" standalone="no"?>
<!-- Created with Inkscape (http://www.inkscape.org/) -->

<svg
   width="512"
   height="220"
   viewBox="0 0 512 220"
   version="1.1"
   id="svg5"
   xml:space="preserve"
   xmlns:xlink="http://www.w3.org/1999/xlink"
   xmlns="http://www.w3.org/2000/svg"
   xmlns:svg="http://www.w3.org/2000/svg"><defs
     id="defs2"><linearGradient
       id="linearGradient2277"><stop
         style="stop-color:#0240bc;stop-opacity:1;"
         offset="0"
         id="stop2273" /><stop
         style="stop-color:#9dd0f0;stop-opacity:1;"
         offset="1"
         id="stop2275" /></linearGradient><linearGradient
       xlink:href="#linearGradient2277"
       id="linearGradient2271"
       gradientUnits="userSpaceOnUse"
       x1="97.389809"
       y1="302.42535"
       x2="740.34424"
       y2="545.52002"
       gradientTransform="matrix(0.67698982,0,0,0.67897563,-14.781385,-170.9109)" /></defs><path
     id="path1367"
     style="display:inline;fill:#0975cf;fill-opacity:1;stroke-width:1.19314"
     d="m 427.81658,44.468923 c -5.39546,0.0495 -10.72359,2.998771 -10.04246,8.964604 1.23373,15.783453 1.06178,28.823064 -2.6273,43.372214 l 13.26741,9.056099 12.93685,-9.977754 c -3.17565,-15.172253 -4.82572,-28.631926 -3.0848,-42.98234 0.40937,-5.632225 -5.05424,-8.48234 -10.4497,-8.432823 z m -110.08753,0.302355 c -3.32899,0.02057 -6.8803,0.821228 -6.85453,3.054066 l 0.11504,23.310611 c -0.0569,3.537164 14.46868,3.353108 14.56321,-0.208201 l 0.24858,-17.683866 c 0.006,-1.451833 -2.96769,-1.552756 -2.92613,-0.218813 l 0.19834,16.856364 c -0.0181,1.551038 -9.48891,1.809911 -9.44613,-0.148519 l 0.25652,-21.269713 c -0.0889,-1.154672 2.55106,-1.236006 4.35548,-1.188207 3.22918,0.07235 5.14222,1.204123 5.14222,1.204123 0,0 -2.98951,0.950593 -6.03738,0.909719 -2.59989,-0.002 -2.59893,2.585009 -0.10446,2.694684 3.3666,-0.05738 8.77114,-1.105345 8.79029,-3.679993 -0.0327,-1.86757 -2.06804,-3.491266 -7.63861,-3.625622 -0.21883,-0.0054 -0.44051,-0.008 -0.66244,-0.0068 z m 110.48421,1.997146 c 1.77968,0.01283 3.54166,0.399367 5.47409,1.253185 l 0.10049,1.246559 c -4.49627,1.205928 -6.92699,1.315867 -11.14653,0.07824 l -0.009,-1.590019 c 2.00393,-0.640172 3.80151,-1.000803 5.5812,-0.987963 z m -7.16261,5.029987 c 3.9155,1.797819 9.49699,1.958559 13.9801,0.152505 -0.90886,17.108189 1.31073,30.227885 3.02794,42.685288 l -9.74892,7.596046 -9.68809,-7.195559 c 3.46267,-12.721558 2.69907,-28.43355 2.42897,-43.23828 z M 77.580129,59.627848 c -0.624212,0.05472 -1.188029,0.344614 -1.213823,0.899113 1.715147,8.494895 1.91515,16.287362 0.03568,23.118325 -0.579402,1.354088 -0.257615,3.229446 0.70608,4.063242 8.218643,3.404587 11.180114,8.456655 11.421563,15.035602 0.11349,22.43313 0.202853,42.59616 -2.000559,68.52746 -1.508686,2.59605 3.103253,3.20867 2.943315,-0.001 1.215501,-23.71163 1.999949,-48.9869 1.997918,-70.46627 C 91.571236,93.965775 83.524846,87.257632 79.07028,85.950407 81.669359,78.437032 80.752228,68.70243 79.15887,60.140052 78.889496,59.753612 78.204321,59.57346 77.58011,59.628165 Z m -14.226043,0.247989 c -0.566032,-0.0027 -1.132063,0.273159 -1.309028,0.814241 -2.579013,9.125643 -1.90159,17.435822 -0.07801,25.457607 -9.801224,4.054394 -11.637585,10.529371 -12.438367,17.319185 1.616467,37.10699 0.788861,69.83166 2.497723,70.76729 9.844769,6.13539 20.96477,7.15553 33.57579,2.1934 1.791586,-1.22862 0.556743,-3.43538 -1.16887,-2.52493 -7.989908,3.93438 -24.294791,2.52165 -29.513848,-2.04357 -1.376483,-1.20686 -1.399433,-33.60217 -2.20286,-69.13218 C 52.44193,92.647104 60.082295,91.281453 64.700131,86.638347 63.569321,78.048429 62.76916,69.599563 64.6631,60.733838 64.486134,60.160484 63.92009,59.878458 63.354079,59.875837 Z M 299.23083,108.34037 c -1.04853,-0.0539 -2.06497,1.97415 -0.88591,2.7769 3.33239,7.6634 24.19758,10.19798 34.47888,5.06713 1.51191,-1.07423 0.48826,-3.764 -1.35266,-2.71325 -8.31328,4.57378 -30.17922,3.39869 -31.53556,-4.72101 -0.21874,-0.27493 -0.46279,-0.39734 -0.70475,-0.40977 z m 129.8908,20.61858 c -14.5522,-0.0799 -19.73531,9.68391 -19.72658,18.77394 0.0274,13.7866 8.47629,18.77486 19.28628,18.8376 12.03417,-0.1845 18.6356,-8.15038 18.7587,-18.31908 -0.052,-9.79858 -6.0338,-19.31066 -18.3184,-19.29246 z m 0.0489,4.23299 c 8.00467,0.20611 14.22289,4.484 14.38603,14.90829 -0.0349,10.37773 -7.64107,14.8338 -15.10004,14.95205 -7.79165,-0.008 -15.61194,-5.23625 -15.61176,-15.23849 0.16101,-6.57668 3.38422,-14.61574 16.32577,-14.62185 z M 299.564,154.53326 c -0.94454,0.0443 -1.85492,0.6713 -1.3672,1.79822 3.52881,10.94299 26.00548,9.69387 34.81737,5.77925 1.51191,-1.07423 -0.22973,-3.33169 -2.07063,-2.28093 -10.42888,4.45004 -28.5567,2.0368 -29.7545,-4.30327 -0.13558,-0.70987 -0.89039,-1.02777 -1.62504,-0.99327 z" /><path
     id="path555-9-4-7"
     style="display:inline;fill:#e2c439;fill-opacity:1;stroke-width:0.344382"
     d="m 253.4917,53.932146 c -7.7519,0.104053 -15.45068,1.9012 -15.46366,4.568501 l 0.008,9.197994 c -0.0284,3.735262 23.01456,3.893877 27.33081,1.716003 1.51191,-1.074215 0.39438,-3.764004 -1.44653,-2.713249 -5.08154,2.647891 -22.63266,1.203608 -22.64478,-1.461386 l -0.11371,-5.141387 c 0.0847,-3.751767 21.85298,-3.245251 24.48931,-0.969393 l 0.0674,5.926445 c 0.10864,1.312121 3.21226,1.614801 3.13373,0.01725 l 0.0383,-6.898494 c -1.67846,-3.107332 -8.55896,-4.334085 -15.39887,-4.242275 z m 171.85492,13.655102 c -2.96976,-0.06206 -3.11356,3.152274 -0.66244,3.199938 l 7.26441,0.147202 c 2.29748,0.06396 1.7477,-3.179812 -0.0899,-3.22381 z m 2.48318,21.143722 c -1.41258,-0.03273 -2.8398,0.569946 -3.58329,2.09263 -0.97032,2.339994 -1.06651,4.202784 1.35134,5.662547 1.34003,0.7961 3.95165,0.744925 5.31807,-1.182904 0.41673,-0.55109 -0.39996,-1.603448 -1.10011,-0.850043 -0.80635,0.919204 -1.96011,1.047619 -3.54229,0.668362 -1.10356,-0.683212 -1.54845,-1.79955 -0.75368,-3.458531 0.71043,-1.925779 5.33068,-1.189681 4.76934,0.503929 -0.37422,0.929864 0.85332,1.595191 1.25878,0.718756 0.95123,-2.279042 -1.36385,-4.100177 -3.71816,-4.154746 z m -276.48026,0.919007 -23.25698,2.535546 0.13222,75.903377 c -0.007,0.99996 2.753,-0.006 2.73176,-0.96542 l -0.0198,-71.932954 17.37431,-1.983885 0.0661,74.350479 -18.88431,2.63236 c -2.79435,0.35632 -2.24139,3.60583 0.52889,3.16148 l 21.46137,-3.36173 z m 88.67244,38.221553 c -1.04851,-0.0539 -2.06497,1.97549 -0.8859,2.77823 11.23603,2.61904 19.8868,3.13565 28.73107,0.0226 1.51191,-1.07422 0.0586,-3.47623 -1.78238,-2.42548 -6.44516,1.54718 -17.39137,2.67876 -25.35803,0.0358 -0.21874,-0.27494 -0.46279,-0.39869 -0.70476,-0.41111 z m 187.21678,15.85912 c -1.615,0.009 -3.42882,1.84589 -3.2395,3.74232 0.32218,2.36368 1.60268,4.14185 3.93896,4.30328 1.28925,0.0787 3.568,-0.9383 3.30694,-2.88831 0.0571,-0.63841 -0.92538,-0.92264 -1.00755,-0.39916 -0.17773,1.4072 -1.33053,1.76914 -2.38797,1.75977 -1.07363,-0.0878 -2.16994,-0.10702 -2.59029,-2.63236 -0.21093,-1.49875 1.4422,-2.46267 2.43426,-2.45995 0.9129,0.0109 2.11439,0.34869 2.34038,1.65898 0.13606,0.93431 1.28892,0.95394 1.19795,0.0503 -0.19321,-1.67599 -2.08087,-3.0272 -3.83716,-3.13098 -0.0516,-0.003 -0.10392,-0.004 -0.15602,-0.004 z m -10.30294,2.72519 c -2.13968,-0.0611 -2.81244,2.51713 -1.1649,2.73313 l 5.71871,0.52382 c 1.46251,0.70527 1.77385,-2.69462 0.31999,-2.91084 l -4.66224,-0.33153 c -0.072,-0.008 -0.14254,-0.0126 -0.21156,-0.0145 z m 22.55619,0.0331 -4.64637,0.51587 c -2.31167,0.17595 -2.58032,3.01039 -0.8674,2.92277 l 5.72004,-0.51718 c 1.56519,0.42979 1.26265,-2.97115 -0.20627,-2.92146 z m -199.314,6.91707 c -1.04852,-0.0539 -2.06498,1.97416 -0.88591,2.77691 11.37974,3.91615 20.31832,2.84733 28.8752,0.45486 1.51191,-1.07423 -0.22971,-3.76401 -2.07063,-2.71326 -5.72664,2.12367 -19.54649,2.67833 -25.2139,-0.10874 -0.21875,-0.27493 -0.46279,-0.39734 -0.70476,-0.40977 z" /><path
     id="path1058"
     style="display:inline;fill:#7b040f;fill-opacity:1;stroke-width:0.690931"
     d="m 131.75386,50.083733 c -3.68099,-0.06783 -7.34899,0.97989 -7.30937,3.278182 l -0.0132,21.87309 c -0.0526,4.388837 14.56913,4.703298 14.55925,-0.290418 l 0.14545,-21.450062 c -0.008,-2.159339 -3.70111,-3.342923 -7.3821,-3.410792 z m 0.23404,2.684078 c 1.38031,0.0014 2.66615,0.187527 4.13466,0.61797 l 0.0476,1.184229 c -3.0783,0.568736 -5.5711,0.648428 -8.88152,-0.0809 l -0.003,-1.230643 c 1.84625,-0.308574 3.32158,-0.491884 4.70191,-0.490662 z m 4.18226,3.791387 -0.033,18.234209 c -0.0705,2.172124 -8.74856,2.31477 -8.75194,0.03579 l 0.004,-18.268688 c 3.20767,1.28471 5.71174,1.141712 8.78103,-0.0014 z m 242.52235,5.166583 c -0.73544,0.05072 -1.36005,0.748387 -1.13317,1.93614 2.39069,9.140505 1.52983,14.646746 0.46278,19.867993 -1.09871,3.632792 12.50745,5.534296 11.95047,9.078645 -3.36937,30.630791 -3.30614,48.215661 -5.05099,71.025891 0.21214,3.30884 1.17378,6.61721 3.20513,9.92604 -0.14676,5.90095 -32.79355,6.03032 -32.65418,-0.27849 -0.12776,-2.34197 2.48117,-3.84086 2.67226,-6.91308 0.81067,-24.42315 -2.14723,-48.84656 -4.45994,-73.269692 -0.0684,-4.001306 9.4143,-4.486713 11.06852,-8.459351 1.22264,-6.260209 -1.96551,-14.235348 1.58273,-20.804234 0.9087,-2.612059 -2.08472,-2.781152 -2.52417,-0.590125 -2.15308,5.701793 -2.422,12.527766 -0.58576,19.086908 -2.92924,3.828899 -13.01275,4.523213 -12.87867,9.69131 2.02196,24.555024 4.40426,49.109874 4.69133,73.664874 -0.38111,5.55211 -5.10993,7.63697 -1.50471,11.06386 -0.0115,6.34402 37.75153,7.19171 37.98018,-3.09518 0.0989,-2.52019 -2.9797,-4.21877 -2.94199,-10.02549 0.89043,-23.78093 1.5969,-47.53102 4.60009,-71.665084 0.56087,-4.075096 -9.82311,-5.148923 -12.22152,-10.192592 1.03936,-5.300945 1.47903,-11.790791 -0.45882,-18.101598 -0.21738,-1.40023 -1.06414,-1.997478 -1.79957,-1.946745 z M 140.44894,101.96436 c -0.7205,0.0271 -1.45907,0.21986 -2.19757,0.57952 -6.43824,2.97817 -3.01655,6.52604 -0.4337,2.60583 1.12529,-1.29854 3.44461,-1.19496 5.08139,-0.45353 2.56492,2.2461 3.79407,1.08439 0.91896,-1.49719 -1.01768,-0.86484 -2.16822,-1.27972 -3.36908,-1.23463 z m 3.63882,11.69642 c -0.0708,-0.002 -0.14298,-0.001 -0.21684,0.003 l -7.44292,0.79302 c -3.71026,0.31408 -3.86802,3.15792 -1.11466,2.96786 l 9.17242,-0.858 c 2.48476,0.32481 1.7963,-2.83295 -0.398,-2.90554 z m 0.69154,9.74569 c -0.74381,0.009 -1.73802,0.64667 -2.42764,2.18014 -0.96416,1.52056 -3.56395,1.78197 -5.5455,1.27574 -3.3439,-1.91369 -4.45389,-0.51631 -0.69153,1.69478 2.11356,1.17129 4.35173,1.09561 6.32826,-0.2082 4.26336,-2.69051 3.7564,-4.96056 2.33641,-4.94246 z" /><path
     id="path1012-3"
     style="display:inline;fill:#46afa7;stroke-width:1.12911"
     d="m 312.4361,73.398322 c -0.79409,0.02648 -1.57895,0.684456 -1.54703,1.926858 -0.15881,7.320803 -12.60803,10.857072 -12.79009,18.197076 l -0.0767,11.879424 c -0.0963,2.31196 2.8721,2.64635 2.94464,-0.1167 l 0.082,-10.53075 c 0.13683,-7.100197 12.89169,-9.597007 12.99239,-19.490049 -0.007,-1.287337 -0.81112,-1.892366 -1.6052,-1.865859 z m -190.49198,2.352549 c -0.39735,-0.03239 -0.83011,0.04617 -1.27465,0.279813 l -11.81294,4.56717 -0.19173,91.741276 9.22795,4.89472 c 2.39619,1.69728 4.67468,-0.88154 2.33641,-2.72121 l -7.79067,-4.03008 -0.19304,-86.885013 10.93761,-4.750181 c 1.53914,-0.731243 0.48287,-2.95611 -1.23894,-3.096495 z m 18.95571,0.218806 c -1.5668,0.0311 -2.84888,2.255646 -0.238,3.538102 l 5.42121,2.390999 c 2.9059,1.532284 3.79559,-1.672562 1.43199,-3.073953 l -5.73855,-2.627053 c -0.28668,-0.164671 -0.5865,-0.233853 -0.87665,-0.228095 z m -12.64596,3.168114 c -0.53213,-0.0061 -1.07963,0.250006 -1.51,0.909718 l -1.98469,2.454661 c -1.75295,2.56244 1.31217,3.477176 3.24479,1.521061 l 1.81412,-2.043561 c 1.0547,-1.097333 -0.20433,-2.826893 -1.56422,-2.841879 z m -12.75041,3.729056 c -1.36853,0.0643 -2.26626,1.905709 -0.50642,2.947977 l 3.578,1.552892 c 2.87836,1.150367 3.39396,-1.29332 1.06572,-2.753036 l -3.14165,-1.477302 c -0.33903,-0.206095 -0.67984,-0.285352 -0.99565,-0.270531 z m 184.14255,33.578793 c -0.67552,0.004 -1.35348,0.6128 -1.36191,1.7969 l -0.0278,33.67162 c -0.0128,1.67704 2.71021,1.70217 2.74102,10e-4 l -0.004,-33.63846 c 0.001,-1.23463 -0.67186,-1.8356 -1.34737,-1.83138 z" /><path
     id="path944"
     style="display:inline;fill:#066469;fill-opacity:1;stroke-width:0.677982"
     d="m 188.70298,44.476881 c -3.32898,0.02057 -6.88029,0.821228 -6.85452,3.054066 l 0.11504,23.310611 c -0.0569,3.537151 14.46868,3.353094 14.56321,-0.208201 l 0.24858,-17.683873 c 0.006,-1.451819 -2.96769,-1.552769 -2.92613,-0.218806 l 0.19834,16.856364 c -0.0181,1.551038 -9.48758,1.809924 -9.44481,-0.148525 l 0.25652,-21.27103 c -0.0889,-1.154672 2.54972,-1.234683 4.35416,-1.186884 3.22918,0.07235 5.14221,1.204123 5.14222,1.204123 -1e-5,0 -2.9895,0.950593 -6.03738,0.909719 -2.59989,-0.002 -2.59893,2.585009 -0.10446,2.694684 3.36659,-0.05744 8.77113,-1.105358 8.79029,-3.679993 -0.0327,-1.86759 -2.06803,-3.491279 -7.63861,-3.625622 -0.21883,-0.0054 -0.44051,-0.008 -0.66245,-0.0068 z m 251.92616,54.107193 c -0.61006,0.07246 -1.13442,0.611689 -1.00226,1.494536 0.16826,6.20799 10.56,18.01045 10.34393,27.78364 0.40088,12.24438 -0.30565,23.378 -1.36853,34.15433 -1.45143,3.22039 -1.83798,7.89328 -1.31431,11.43517 0.007,6.51615 -35.0772,8.29604 -38.19836,0.48667 -0.002,-3.69401 -0.41426,-7.38838 -1.51926,-11.08241 -0.80644,-11.95648 -2.00108,-23.81462 -1.41744,-36.11965 -0.20653,-7.58616 8.783,-15.72344 10.56077,-26.11271 0.54957,-1.509914 -2.48548,-1.886793 -2.86134,0.23075 -1.28968,5.51365 -10.7012,17.44785 -10.62292,28.68407 -0.3346,11.7039 1.03158,22.83848 1.67925,34.214 1.35995,3.5716 1.56665,6.91284 1.08821,10.11568 0.26919,12.32286 44.46946,9.99533 44.27011,0.49597 -0.26927,-4.04891 0.26917,-8.36756 1.09878,-12.78384 1.35553,-10.65676 1.88865,-21.86421 2.14601,-33.25521 0.17639,-10.05046 -9.98031,-21.25768 -11.36338,-28.432108 -0.21306,-0.987244 -0.9092,-1.381356 -1.51926,-1.308888 z m -263.77744,16.556666 0.008,44.21563 c -0.0777,2.66521 24.53743,2.51839 24.42981,0.001 l 0.0278,-44.18117 c -8.31143,2.96745 -16.54974,2.36019 -24.46552,-0.0358 z m 2.84943,3.6853 c 3.17528,1.79808 16.08816,1.49626 18.65028,0.0955 l -0.0119,37.95633 c 0.0182,2.3959 -18.44611,2.09769 -18.52466,0.0345 z" /><path
     id="path845-2-7-9"
     style="display:inline;fill:#3b11f1;fill-opacity:1;stroke-width:0.536382"
     d="m 371.2866,42.166775 c -5.52746,0.08475 -7.27557,2.479402 -7.30805,3.657445 0.019,2.445697 6.6107,3.654389 9.95122,3.690606 2.47517,-0.06919 1.79435,-2.796606 -0.78541,-2.795472 -3.02428,0.02581 -6.67337,-0.710799 -6.67337,-0.710799 0,0 2.03457,-1.535103 5.23873,-1.580744 2.38622,0.06036 5.26416,0.165677 5.27709,1.570131 l 0.11767,11.773336 c 0.0424,1.783119 -10.03638,1.483636 -10.05435,0.505252 l -0.0767,-7.894415 c 0.0412,-0.841454 -2.90949,-0.777895 -2.90365,0.137914 l 0.51964,8.416907 c -0.17928,2.657266 14.50732,3.456693 14.45083,0.129963 l 0.2499,-13.470768 c -0.10924,-2.460939 -4.52933,-3.483565 -8.00355,-3.429356 z M 247.23219,71.271221 c -0.9718,0.02091 -1.98192,0.494287 -2.03361,1.413647 0.0494,4.732725 -0.59106,8.48306 -2.58632,13.625927 -1.899,3.473347 -17.36179,5.24087 -17.31481,16.161475 0,0 -1.02927,70.10238 0.37287,71.96081 0.13111,8.5836 55.68418,9.66307 55.62292,-0.9442 l 0.0859,-71.53778 c 0.0383,-8.388546 -12.18967,-11.839521 -16.47254,-14.859218 -2.40918,-2.245528 -3.31869,-9.899376 -2.93539,-13.745278 0.38447,-2.526644 -4.06877,-2.5227 -3.61502,-0.147201 0.80266,5.32308 0.19251,12.813648 2.92481,15.186776 3.63305,3.156429 16.70651,8.82466 16.97103,12.687031 l 0.0621,70.94897 c 0.007,6.51615 -49.05402,6.27398 -49.13729,0.95747 -1.37648,-1.20688 -0.5408,-69.4319 -0.5408,-69.4319 -0.0684,-8.832567 13.47707,-10.043867 17.46422,-15.585931 1.00312,-5.769507 2.20363,-10.568825 2.93539,-15.388344 0.10165,-0.891949 -0.83173,-1.323161 -1.80355,-1.302254 z m 27.8531,28.633677 c -0.22476,0.02098 -0.45612,0.09145 -0.68624,0.222782 -6.87627,4.57378 -38.3711,3.97542 -42.17039,0.32358 -1.1666,-1.46632 -3.04181,1.81277 -1.59066,2.80077 10.94865,5.3574 37.85004,3.85545 45.97581,-0.26655 1.32292,-0.93994 0.0449,-3.227403 -1.52852,-3.080582 z M 385.3553,110.494 c -0.37739,-0.0373 -0.80231,0.0768 -1.22837,0.41375 -6.19929,2.56488 -16.89132,5.41042 -25.05126,3.9797 -1.31272,-1.29963 -2.85466,1.86539 -1.31299,2.63766 11.38766,0.8982 19.99111,0.0744 28.38994,-4.44517 1.03244,-0.99008 0.33485,-2.47394 -0.79732,-2.58594 z" /><path
     id="path822"
     style="display:inline;fill:#58dcd2;fill-opacity:1;stroke-width:0.694722"
     d="m 323.94228,73.646311 c -0.55719,0.0027 -1.11367,0.283324 -1.28787,0.856678 0.28365,3.965495 1.07601,7.515308 3.98657,10.052015 4.54574,4.643108 8.47446,4.278545 8.49146,11.331737 -0.0724,36.827199 0.91072,77.869899 -0.44427,79.076779 -5.1376,4.56521 -26.21789,7.8506 -33.93941,-0.55166 l 0.21421,-11.42986 c -0.0853,-1.6183 -2.90973,-2.11697 -2.94729,-0.0848 l 0.4337,12.45496 c -0.51909,8.42113 34.28171,8.69845 39.0869,1.98654 1.6822,-0.93563 0.73385,-82.008856 0.73385,-82.008856 -0.0698,-3.763202 -1.73345,-8.509289 -9.51356,-12.563696 -3.04303,-2.269097 -3.15022,-5.659058 -3.5251,-8.305515 -0.17421,-0.541083 -0.73201,-0.81687 -1.28919,-0.814242 z m -169.143,9.404871 c -0.13211,0.0047 -0.27229,0.02228 -0.42048,0.05439 l -32.27205,3.889519 -0.0225,93.215929 33.69081,-4.7104 0.79467,-87.314667 c 0.01,-1.152873 -3.11448,-0.780013 -3.08215,0.326228 l -0.45353,83.919789 -27.40619,4.06988 -0.1309,-86.508389 29.67648,-3.833829 c 1.77594,-0.385794 1.60744,-3.183045 -0.37419,-3.108432 z" /><path
     id="path767-9-5"
     style="display:inline;fill:#e41e15;fill-opacity:1;stroke-width:0.699413"
     d="m 69.645328,43.230323 c -3.436004,0.06749 -6.658943,1.12221 -6.62181,3.276852 l 0.10446,10.246963 c -0.0526,4.388838 14.570455,4.704622 14.560571,-0.289094 l 0.02647,-9.825252 c -0.0081,-2.2943 -4.175524,-3.485936 -8.069671,-3.409469 z m 0.921606,2.682747 c 1.380321,0.0014 2.666162,0.187534 4.134661,0.617977 l 0.04759,1.184228 c -3.078307,0.568737 -5.569778,0.648429 -8.880207,-0.0809 l -0.0041,-1.229319 c 1.846255,-0.308574 3.321585,-0.493207 4.701907,-0.491993 z m 4.183587,3.791394 0.0833,6.609399 c -0.07047,2.172125 -8.747239,2.314764 -8.750624,0.03579 l -0.113714,-6.643885 c 3.207668,1.28471 5.711738,1.141711 8.781034,-0.0014 z M 357.67938,91.891126 c -1.11586,-0.05385 -2.19757,1.975486 -0.94276,2.778232 11.95771,2.619027 21.16325,3.135666 30.57561,0.02255 1.60901,-1.074228 0.0617,-3.476233 -1.89743,-2.425478 -6.85912,1.547155 -18.50737,2.678769 -26.98571,0.03579 -0.23279,-0.274938 -0.49222,-0.398674 -0.74971,-0.4111 z m 28.77603,6.832192 c -0.42372,0.002 -0.88387,0.160198 -1.31828,0.539731 -6.59188,3.198091 -18.14303,7.143431 -27.37709,6.572271 -1.60955,-1.15553 -2.95582,2.15385 -1.15301,2.761 12.7593,-0.29542 22.22488,-2.01207 31.03444,-7.38387 1.03255,-1.09247 0.0851,-2.495929 -1.18606,-2.489132 z M 54.83882,108.45972 c -1.048515,-0.0539 -2.064978,1.97549 -0.885903,2.77824 10.948639,5.35738 25.346874,4.4323 33.472654,0.3103 1.511895,-1.07423 -0.229722,-3.764 -2.070641,-2.71324 -6.876273,4.57377 -26.012077,3.68764 -29.81135,0.0358 -0.218743,-0.27493 -0.462797,-0.39867 -0.70476,-0.4111 z m 16.073223,16.03152 c -3.604581,-0.009 -8.387988,3.58324 -8.490145,7.03508 0.06648,4.15766 2.402941,7.16368 7.502424,7.17435 2.816907,-0.0125 8.108788,-2.0861 8.064377,-5.51669 0.299236,-1.13995 -1.787036,-1.52771 -2.110299,-0.58879 -0.773975,2.51888 -3.407771,3.29584 -5.733258,3.40415 -2.339724,-0.029 -4.748883,0.0661 -4.987515,-4.36693 -0.0568,-2.6355 3.843504,-4.5409 6.026796,-4.65336 2.006788,-0.0884 4.559405,0.36768 4.700584,2.66683 0.04543,1.64246 2.580557,1.54141 2.625983,-0.0517 0.03046,-2.95218 -3.760712,-5.12608 -7.598947,-5.10292 z m 13.434017,22.17147 c -0.293672,-0.0188 -0.621389,0.055 -0.966566,0.25196 -5.942528,3.11702 -21.86286,3.89452 -25.662148,0.24268 -1.166602,-1.4663 -3.041816,1.37913 -1.590662,2.36713 10.0149,4.52499 22.027485,3.08073 28.908267,-0.10475 1.228412,-0.87282 0.583667,-2.67558 -0.688891,-2.75702 z" /><path
     d="m 182.09681,75.330068 c -0.18313,-2.565352 3.70616,-2.158462 3.07053,0.04278 -0.50553,5.308855 -3.08775,8.118402 -5.54302,11.080705 -3.70231,3.69876 -5.26504,5.279687 -5.1966,9.280992 0,0 -0.68182,77.606665 0.69467,78.813545 0.54332,5.62413 29.36766,5.2211 29.51441,-0.67985 l -0.0619,-78.178026 c -0.26451,-3.862373 -2.4505,-6.916574 -6.08356,-10.073003 -2.7323,-2.373129 -5.03522,-5.248665 -5.37783,-10.417944 -0.45376,-2.375512 3.99941,-2.380101 3.61495,0.146544 -0.3833,3.845915 1.59936,6.271052 4.00854,8.516581 4.28288,3.019696 6.23579,7.239631 6.35085,11.014139 l 0.52706,80.458249 c -0.0921,7.68505 -31.57421,8.48054 -35.38578,1.58876 -1.70887,-0.93562 -1.13942,-82.264574 -1.13942,-82.264574 -0.13409,-5.168111 4.21493,-7.915844 7.00765,-10.512308 2.13608,-2.536217 3.92185,-5.399383 3.99946,-8.816587 z"
     style="display:inline;fill:#a34d49;fill-opacity:1;stroke-width:0.677982"
     id="path614" /><path
     id="text2012"
     style="font-style:normal;font-variant:normal;font-weight:bold;font-stretch:normal;font-size:80px;font-family:Tahoma;-inkscape-font-specification:'Tahoma, Bold';font-variant-ligatures:normal;font-variant-caps:normal;font-variant-numeric:normal;font-variant-east-asian:normal;text-align:center;text-anchor:middle;opacity:1;fill:url(#linearGradient2271);fill-opacity:1;stroke:none;stroke-width:0;stroke-miterlimit:11.9;stroke-dasharray:none;paint-order:markers fill stroke"
     d="m 466.91142,0 1.58669,15.621742 h 5.44766 L 475.53246,0 Z M 55.216979,0.95480944 c -5.941282,0 -10.604411,1.84773706 -13.989357,5.54319756 -3.384945,3.67778 -5.077423,8.690542 -5.077423,15.038251 0,6.294661 1.692478,11.298581 5.077423,15.011729 3.384946,3.69546 8.048075,5.543197 13.989357,5.543197 5.923661,0 10.586787,-1.830056 13.989368,-5.490156 3.402571,-3.660098 5.103867,-8.681701 5.103867,-15.06477 0,-6.383071 -1.701296,-11.404672 -5.103867,-15.0647718 C 65.803766,2.7937062 61.14064,0.95480944 55.216979,0.95480944 Z m 145.314811,0 c -5.94128,0 -10.60442,1.84773706 -13.98936,5.54319756 -3.38495,3.67778 -5.07742,8.690542 -5.07742,15.038251 0,6.294661 1.69247,11.298581 5.07742,15.011729 3.38494,3.69546 8.04808,5.543197 13.98936,5.543197 5.92365,0 10.58679,-1.830056 13.98936,-5.490156 3.40258,-3.660098 5.10387,-8.681701 5.10387,-15.06477 0,-6.383071 -1.70129,-11.404672 -5.10387,-15.0647718 -3.40257,-3.67778 -8.06571,-5.51667676 -13.98936,-5.51667676 z m 96.89417,0 c -5.94128,0 -10.60442,1.84773706 -13.98936,5.54319756 -3.38495,3.67778 -5.07742,8.690542 -5.07742,15.038251 0,6.294661 1.69247,11.298581 5.07742,15.011729 3.38494,3.69546 8.04808,5.543197 13.98936,5.543197 5.92365,0 10.58679,-1.830056 13.98936,-5.490156 3.40257,-3.660098 5.10387,-8.681701 5.10387,-15.06477 0,-6.383071 -1.7013,-11.404672 -5.10387,-15.0647718 -3.40257,-3.67778 -8.06571,-5.51667676 -13.98936,-5.51667676 z m 112.15288,0 c -5.94128,0 -10.60441,1.84773706 -13.98936,5.54319756 -3.38494,3.67778 -5.07742,8.690542 -5.07742,15.038251 0,6.294661 1.69248,11.298581 5.07742,15.011729 3.38495,3.69546 8.04808,5.543197 13.98936,5.543197 5.92366,0 10.58679,-1.830056 13.98936,-5.490156 3.40258,-3.660098 5.10387,-8.681701 5.10387,-15.06477 0,-6.383071 -1.70129,-11.404672 -5.10387,-15.0647718 -3.40257,-3.67778 -8.0657,-5.51667676 -13.98936,-5.51667676 z M 19.304788,1.0078374 c -5.906025,0 -10.6044141,1.8654244 -14.0951395,5.5962459 C 1.7365534,10.317232 0,15.303465 0,21.562764 c 0,6.489161 1.7365534,11.528443 5.2096485,15.11782 3.4730952,3.57169 8.1626695,5.357539 14.0686945,5.357539 1.886402,0 3.36732,-0.09725 4.442746,-0.291749 1.075425,-0.194493 2.230189,-0.477401 3.464283,-0.848719 1.004906,-0.300583 1.98337,-0.663062 2.935386,-1.087421 0.952016,-0.442041 1.78944,-0.831039 2.512267,-1.166989 v -9.282866 h -0.899127 c -0.493638,0.44204 -1.075427,0.945968 -1.745365,1.511779 -0.669937,0.565811 -1.445656,1.122788 -2.327152,1.670919 -0.810976,0.53045 -1.80707,1.016691 -2.988275,1.458738 -1.181205,0.424353 -2.424119,0.63654 -3.728733,0.63654 -1.251725,0 -2.512268,-0.221027 -3.781623,-0.663067 -1.251725,-0.442041 -2.388858,-1.158149 -3.411394,-2.14832 -1.057796,-1.025539 -1.912849,-2.369347 -2.565157,-4.031418 -0.652307,-1.679759 -0.978462,-3.748515 -0.978462,-6.206264 0,-2.333972 0.308525,-4.358529 0.925572,-6.073648 0.634678,-1.715119 1.445657,-3.076608 2.432933,-4.084459 1.075425,-1.113947 2.203744,-1.8919384 3.384949,-2.3339787 1.198834,-0.4597275 2.512268,-0.6895879 3.940292,-0.6895879 1.198835,0 2.344784,0.2033396 3.437839,0.6100188 1.110685,0.3889987 2.124409,0.8664 3.041165,1.4322168 0.916756,0.565811 1.73655,1.149303 2.459377,1.750481 0.722827,0.583492 1.322246,1.08742 1.798254,1.511781 h 1.004907 V 4.2966323 C 31.980718,3.9606752 31.125664,3.562843 30.067868,3.1031154 29.010073,2.6433946 28.031609,2.2809167 27.132483,2.0156953 25.986538,1.6974254 24.787699,1.4498846 23.535974,1.2730657 22.28425,1.0962469 20.873851,1.0078374 19.304788,1.0078374 Z m 145.314812,0 c -5.90603,0 -10.60442,1.8654244 -14.09515,5.5962459 -3.47309,3.7131487 -5.20964,8.6993817 -5.20964,14.9586807 0,6.489161 1.73655,11.528443 5.20964,15.11782 3.4731,3.57169 8.16267,5.357539 14.0687,5.357539 1.8864,0 3.36732,-0.09725 4.44275,-0.291749 1.07542,-0.194493 2.23019,-0.477401 3.46428,-0.848719 1.00491,-0.300583 1.98337,-0.663062 2.93539,-1.087421 0.95201,-0.442041 1.78944,-0.831039 2.51227,-1.166989 v -9.282866 h -0.89913 c -0.49364,0.44204 -1.07543,0.945968 -1.74536,1.511779 -0.66995,0.565811 -1.44566,1.122788 -2.32716,1.670919 -0.81098,0.53045 -1.80707,1.016691 -2.98828,1.458738 -1.1812,0.424353 -2.42412,0.63654 -3.72873,0.63654 -1.25172,0 -2.51227,-0.221027 -3.78162,-0.663067 -1.25172,-0.442041 -2.38886,-1.158149 -3.4114,-2.14832 -1.05779,-1.025539 -1.91284,-2.369347 -2.56515,-4.031418 -0.65231,-1.679759 -0.97846,-3.748515 -0.97846,-6.206264 0,-2.333972 0.30852,-4.358529 0.92557,-6.073648 0.63467,-1.715119 1.44565,-3.076608 2.43293,-4.084459 1.07542,-1.113947 2.20374,-1.8919384 3.38495,-2.3339787 1.19884,-0.4597275 2.51227,-0.6895879 3.94029,-0.6895879 1.19884,0 2.34479,0.2033396 3.43784,0.6100188 1.11069,0.3889987 2.12441,0.8664 3.04117,1.4322168 0.91675,0.565811 1.73654,1.149303 2.45937,1.750481 0.72283,0.583492 1.32225,1.08742 1.79826,1.511781 h 1.00491 V 4.2966323 C 177.29553,3.9606752 176.44047,3.562843 175.38267,3.1031154 174.32488,2.6433946 173.34642,2.2809167 172.44729,2.0156953 171.30135,1.6974254 170.10251,1.4498846 168.85079,1.2730657 167.59906,1.0962469 166.18866,1.0078374 164.6196,1.0078374 Z m 209.04705,0 c -5.90603,0 -10.60442,1.8654244 -14.09514,5.5962459 -3.4731,3.7131487 -5.20965,8.6993817 -5.20965,14.9586807 0,6.489161 1.73655,11.528443 5.20965,15.11782 3.47309,3.57169 8.16267,5.357539 14.0687,5.357539 1.88639,0 3.36732,-0.09725 4.44274,-0.291749 1.07543,-0.194493 2.23019,-0.477401 3.46428,-0.848719 1.00491,-0.300583 1.98337,-0.663062 2.93539,-1.087421 0.95201,-0.442041 1.78944,-0.831039 2.51227,-1.166989 v -9.282866 h -0.89913 c -0.49364,0.44204 -1.07543,0.945968 -1.74537,1.511779 -0.66993,0.565811 -1.44565,1.122788 -2.32715,1.670919 -0.81098,0.53045 -1.80707,1.016691 -2.98827,1.458738 -1.18121,0.424353 -2.42412,0.63654 -3.72874,0.63654 -1.25172,0 -2.51226,-0.221027 -3.78162,-0.663067 -1.25172,-0.442041 -2.38886,-1.158149 -3.4114,-2.14832 -1.05779,-1.025539 -1.91284,-2.369347 -2.56515,-4.031418 -0.65231,-1.679759 -0.97846,-3.748515 -0.97846,-6.206264 0,-2.333972 0.30852,-4.358529 0.92557,-6.073648 0.63468,-1.715119 1.44566,-3.076608 2.43293,-4.084459 1.07543,-1.113947 2.20375,-1.8919384 3.38495,-2.3339787 1.19884,-0.4597275 2.51227,-0.6895879 3.94029,-0.6895879 1.19884,0 2.34479,0.2033396 3.43784,0.6100188 1.11069,0.3889987 2.12441,0.8664 3.04117,1.4322168 0.91676,0.565811 1.73655,1.149303 2.45937,1.750481 0.72283,0.583492 1.32225,1.08742 1.79826,1.511781 h 1.00491 V 4.2966323 C 386.34258,3.9606752 385.48753,3.562843 384.42973,3.1031154 383.37193,2.6433946 382.39347,2.2809167 381.49434,2.0156953 380.3484,1.6974254 379.14956,1.4498846 377.89784,1.2730657 376.64611,1.0962469 375.23572,1.0078374 373.66665,1.0078374 Z M 94.619908,1.0608654 c -4.671933,0 -8.568159,1.1493089 -11.688655,3.4479264 -3.120497,2.2809303 -4.680748,5.2691359 -4.680748,8.9645962 0,2.740651 0.661127,5.021595 1.98337,6.842797 1.322242,1.821211 3.508364,3.271108 6.558339,4.349695 1.322242,0.459721 2.741456,0.84872 4.257629,1.166983 1.533802,0.31827 2.970645,0.654226 4.310523,1.007858 1.075425,0.282908 2.000999,0.733789 2.776714,1.352648 0.775716,0.618853 1.163577,1.423371 1.163577,2.413547 0,0.884081 -0.238003,1.60019 -0.714015,2.148321 -0.476005,0.530449 -1.057796,0.945968 -1.745361,1.246557 -0.564156,0.265222 -1.313434,0.459722 -2.247816,0.583492 -0.916759,0.12377 -1.657217,0.185659 -2.221373,0.185659 -2.239001,0 -4.548532,-0.450888 -6.928571,-1.352648 -2.380039,-0.901761 -4.557339,-2.192528 -6.531895,-3.872279 h -0.899124 v 9.388955 c 1.95692,0.8664 4.07252,1.59135 6.34678,2.174841 2.291888,0.583498 4.9452,0.875247 7.959917,0.875247 5.23609,0 9.387951,-1.193517 12.455561,-3.580537 3.08523,-2.38702 4.62786,-5.543205 4.62786,-9.468525 0,-2.740658 -0.66994,-4.942026 -2.00982,-6.604097 -1.32225,-1.679759 -3.34969,-3.014726 -6.08233,-4.004897 -1.392764,-0.495089 -2.706199,-0.884088 -3.94029,-1.166989 -1.216463,-0.28291 -2.485826,-0.574658 -3.808068,-0.875248 -2.045071,-0.477401 -3.429028,-1.007851 -4.15185,-1.591342 -0.7052,-0.601179 -1.057797,-1.405697 -1.057797,-2.413548 0,-0.689588 0.220374,-1.308447 0.661122,-1.856577 0.458376,-0.565811 0.996088,-0.9901707 1.613138,-1.2730794 0.758086,-0.353631 1.480915,-0.5923316 2.168486,-0.7161088 0.687564,-0.1237705 1.463286,-0.1856524 2.327153,-0.1856524 2.221366,0 4.381038,0.4332001 6.479006,1.2996001 2.11559,0.8664005 3.90503,1.9272995 5.36832,3.1826975 h 0.87268 V 3.7131479 C 106.00885,2.8997894 103.92852,2.2544095 101.60137,1.7770082 99.291842,1.2996 96.96469,1.0608994 94.619908,1.0608994 Z m 242.208972,0 c -4.67193,0 -8.56815,1.1493089 -11.68865,3.4479264 -3.1205,2.2809303 -4.68075,5.2691359 -4.68075,8.9645962 0,2.740651 0.66112,5.021595 1.98337,6.842797 1.32224,1.821211 3.50836,3.271108 6.55834,4.349695 1.32224,0.459721 2.74146,0.84872 4.25763,1.166983 1.5338,0.31827 2.97064,0.654226 4.31052,1.007858 1.07543,0.282908 2.001,0.733789 2.77672,1.352648 0.77571,0.618853 1.16357,1.423371 1.16357,2.413547 0,0.884081 -0.238,1.60019 -0.71401,2.148321 -0.47601,0.530449 -1.0578,0.945968 -1.74536,1.246557 -0.56417,0.265222 -1.31344,0.459722 -2.24783,0.583492 -0.91675,0.12377 -1.65721,0.185659 -2.22137,0.185659 -2.23899,0 -4.54852,-0.450888 -6.92856,-1.352648 -2.38004,-0.901761 -4.55734,-2.192528 -6.5319,-3.872279 h -0.89912 v 9.388955 c 1.95692,0.8664 4.07252,1.59135 6.34678,2.174841 2.29189,0.583498 4.9452,0.875247 7.95992,0.875247 5.23609,0 9.38794,-1.193517 12.45555,-3.580537 3.08523,-2.38702 4.62786,-5.543205 4.62786,-9.468525 0,-2.740658 -0.66994,-4.942026 -2.00982,-6.604097 -1.32224,-1.679759 -3.34969,-3.014726 -6.08232,-4.004897 -1.39277,-0.495089 -2.7062,-0.884088 -3.94029,-1.166989 -1.21647,-0.28291 -2.48583,-0.574658 -3.80807,-0.875248 -2.04507,-0.477401 -3.42903,-1.007851 -4.15186,-1.591342 -0.70519,-0.601179 -1.0578,-1.405697 -1.0578,-2.413548 0,-0.689588 0.22039,-1.308447 0.66113,-1.856577 0.45838,-0.565811 0.99609,-0.9901707 1.61314,-1.2730794 0.75809,-0.353631 1.48092,-0.5923316 2.16848,-0.7161088 0.68757,-0.1237705 1.46329,-0.1856524 2.32715,-0.1856524 2.22138,0 4.38105,0.4332001 6.47901,1.2996001 2.11559,0.8664005 3.90504,1.9272995 5.36831,3.1826975 h 0.87269 V 3.7131479 C 348.21783,2.8997894 346.13749,2.2544095 343.81034,1.7770082 341.50082,1.2996 339.17367,1.0608994 336.82888,1.0608994 Z m 160.38841,0 c -4.67193,0 -8.56816,1.1493089 -11.68865,3.4479264 -3.1205,2.2809303 -4.68075,5.2691359 -4.68075,8.9645962 0,2.740651 0.66112,5.021595 1.98337,6.842797 1.32224,1.821211 3.50836,3.271108 6.55834,4.349695 1.32224,0.459721 2.74145,0.84872 4.25763,1.166983 1.5338,0.31827 2.97064,0.654226 4.31052,1.007858 1.07542,0.282908 2.001,0.733789 2.77671,1.352648 0.77572,0.618853 1.16358,1.423371 1.16358,2.413547 0,0.884081 -0.238,1.60019 -0.71402,2.148321 -0.476,0.530449 -1.05779,0.945968 -1.74536,1.246557 -0.56415,0.265222 -1.31343,0.459722 -2.24781,0.583492 -0.91676,0.12377 -1.65722,0.185659 -2.22138,0.185659 -2.239,0 -4.54853,-0.450888 -6.92857,-1.352648 -2.38004,-0.901761 -4.55734,-2.192528 -6.53189,-3.872279 h -0.89913 v 9.388955 c 1.95692,0.8664 4.07252,1.59135 6.34678,2.174841 2.29189,0.583498 4.9452,0.875247 7.95992,0.875247 5.23609,0 9.38795,-1.193517 12.45556,-3.580537 C 510.45738,36.017504 512,32.861319 512,28.935999 c 0,-2.740658 -0.66994,-4.942026 -2.00981,-6.604097 -1.32225,-1.679759 -3.34969,-3.014726 -6.08234,-4.004897 -1.39276,-0.495089 -2.7062,-0.884088 -3.94029,-1.166989 -1.21646,-0.28291 -2.48582,-0.574658 -3.80807,-0.875248 -2.04507,-0.477401 -3.42902,-1.007851 -4.15185,-1.591342 -0.7052,-0.601179 -1.05779,-1.405697 -1.05779,-2.413548 0,-0.689588 0.22037,-1.308447 0.66112,-1.856577 0.45838,-0.565811 0.99609,-0.9901707 1.61314,-1.2730794 0.75808,-0.353631 1.48091,-0.5923316 2.16848,-0.7161088 0.68757,-0.1237705 1.46329,-0.1856524 2.32716,-0.1856524 2.22136,0 4.38103,0.4332001 6.479,1.2996001 2.11559,0.8664005 3.90503,1.9272995 5.36832,3.1826975 h 0.87268 V 3.7131479 C 508.60624,2.8997894 506.5259,2.2544095 504.19875,1.7770082 501.88922,1.2996 499.56207,1.0608994 497.21729,1.0608994 Z M 110.38108,1.7769742 v 7.5323856 h 11.63576 V 41.268986 h 9.89039 V 9.3093938 H 143.543 V 1.7770082 Z m 130.95522,0 V 41.268986 h 9.8375 V 26.787713 h 3.54362 l 10.97464,14.481273 h 12.05888 l -13.2489,-16.788731 c 2.27426,-1.113948 4.09015,-2.608047 5.44765,-4.482298 1.35751,-1.891939 2.03626,-4.349695 2.03626,-7.373255 0,-2.139479 -0.4143,-3.8988062 -1.24291,-5.2779755 C 269.91443,5.9498768 268.79493,4.800568 267.38453,3.898807 266.0094,3.0324069 264.51086,2.4665894 262.8889,2.2013679 261.26695,1.9184592 259.36291,1.7770082 257.1768,1.7770082 Z m 193.1801,0 V 41.268986 h 26.63003 V 33.736601 H 444.3539 v -9.972454 h 15.47028 V 16.231761 H 444.3539 V 9.3093938 h 16.79253 V 1.7770082 Z M 55.243429,8.4075919 c 1.145941,0 2.247816,0.2387076 3.305613,0.7161088 1.075425,0.4597209 2.036257,1.2288783 2.882494,2.3074583 0.81098,1.060899 1.454472,2.422387 1.930477,4.084459 0.493641,1.644398 0.740458,3.642425 0.740458,5.994085 0,2.47543 -0.229188,4.482298 -0.687565,6.020598 -0.458376,1.520628 -1.11069,2.855595 -1.956927,4.004897 -0.793344,1.0609 -1.736546,1.847737 -2.829601,2.3605 -1.093054,0.495089 -2.221372,0.742636 -3.384949,0.742636 -1.145947,0 -2.256637,-0.229867 -3.332061,-0.689588 -1.075425,-0.477401 -2.036259,-1.264238 -2.882496,-2.360499 -0.828606,-1.07858 -1.480915,-2.413548 -1.956924,-4.004896 -0.476007,-1.60903 -0.714012,-3.624746 -0.714012,-6.047127 0,-2.351659 0.24682,-4.376208 0.740458,-6.073648 0.511267,-1.697438 1.172392,-3.058927 1.983368,-4.084466 0.916756,-1.113941 1.868775,-1.8830978 2.856051,-2.3074576 0.987278,-0.4420403 2.089147,-0.6630605 3.305616,-0.6630605 z m 145.314801,0 c 1.14595,0 2.24783,0.2387076 3.30562,0.7161088 1.07543,0.4597209 2.03626,1.2288783 2.8825,2.3074583 0.81097,1.060899 1.45447,2.422387 1.93047,4.084459 0.49364,1.644398 0.74046,3.642425 0.74046,5.994085 0,2.47543 -0.22919,4.482298 -0.68756,6.020598 -0.45839,1.520628 -1.11069,2.855595 -1.95693,4.004897 -0.79334,1.0609 -1.73655,1.847737 -2.82961,2.3605 -1.09305,0.495089 -2.22137,0.742636 -3.38495,0.742636 -1.14594,0 -2.25663,-0.229867 -3.33205,-0.689588 -1.07543,-0.477401 -2.03626,-1.264238 -2.8825,-2.360499 -0.8286,-1.07858 -1.48091,-2.413548 -1.95692,-4.004896 -0.47601,-1.60903 -0.71402,-3.624746 -0.71402,-6.047127 0,-2.351659 0.24683,-4.376208 0.74046,-6.073648 0.51127,-1.697438 1.1724,-3.058927 1.98337,-4.084466 0.91676,-1.113941 1.86878,-1.8830978 2.85605,-2.3074576 0.98728,-0.4420403 2.08915,-0.6630605 3.30561,-0.6630605 z m 96.89417,0 c 1.14595,0 2.24782,0.2387076 3.30562,0.7161088 1.07543,0.4597209 2.03626,1.2288783 2.88249,2.3074583 0.81098,1.060899 1.45448,2.422387 1.93048,4.084459 0.49364,1.644398 0.74046,3.642425 0.74046,5.994085 0,2.47543 -0.22919,4.482298 -0.68756,6.020598 -0.45839,1.520628 -1.11069,2.855595 -1.95693,4.004897 -0.79335,1.0609 -1.73655,1.847737 -2.82961,2.3605 -1.09305,0.495089 -2.22137,0.742636 -3.38495,0.742636 -1.14594,0 -2.25663,-0.229867 -3.33205,-0.689588 -1.07543,-0.477401 -2.03626,-1.264238 -2.8825,-2.360499 -0.82861,-1.07858 -1.48091,-2.413548 -1.95693,-4.004896 -0.476,-1.60903 -0.71401,-3.624746 -0.71401,-6.047127 0,-2.351659 0.24682,-4.376208 0.74046,-6.073648 0.51127,-1.697438 1.1724,-3.058927 1.98337,-4.084466 0.91676,-1.113941 1.86877,-1.8830978 2.85605,-2.3074576 0.98727,-0.4420403 2.08915,-0.6630605 3.30561,-0.6630605 z m 112.15289,0 c 1.14594,0 2.24782,0.2387076 3.30561,0.7161088 1.07543,0.4597209 2.03626,1.2288783 2.8825,2.3074583 0.81098,1.060899 1.45447,2.422387 1.93047,4.084459 0.49364,1.644398 0.74046,3.642425 0.74046,5.994085 0,2.47543 -0.22919,4.482298 -0.68756,6.020598 -0.45838,1.520628 -1.11069,2.855595 -1.95693,4.004897 -0.79334,1.0609 -1.73655,1.847737 -2.8296,2.3605 -1.09306,0.495089 -2.22137,0.742636 -3.38495,0.742636 -1.14595,0 -2.25664,-0.229867 -3.33206,-0.689588 -1.07543,-0.477401 -2.03626,-1.264238 -2.8825,-2.360499 -0.82861,-1.07858 -1.48091,-2.413548 -1.95692,-4.004896 -0.47601,-1.60903 -0.71401,-3.624746 -0.71401,-6.047127 0,-2.351659 0.24682,-4.376208 0.74046,-6.073648 0.51126,-1.697438 1.17239,-3.058927 1.98336,-4.084466 0.91676,-1.113941 1.86878,-1.8830978 2.85605,-2.3074576 0.98728,-0.4420403 2.08915,-0.6630605 3.30562,-0.6630605 z M 251.1738,9.0441316 h 3.30562 c 1.12832,0 2.07152,0.035374 2.8296,0.10609 0.75809,0.070729 1.44566,0.2387074 2.0627,0.5039288 0.88151,0.3889986 1.50737,0.9459696 1.87759,1.6709176 0.38787,0.707263 0.5818,1.555989 0.5818,2.546159 0,1.113941 -0.15868,2.015709 -0.47602,2.70529 -0.29971,0.689588 -0.7669,1.28192 -1.40157,1.777008 -0.66994,0.54813 -1.48973,0.910608 -2.45938,1.087421 -0.95202,0.159138 -2.1156,0.238701 -3.49073,0.238701 H 251.1738 Z M 216.76368,164.17282 c -6.4364,0 -11.48723,2.00128 -15.15426,6.00469 -3.66702,3.98426 -5.50054,9.41475 -5.50054,16.29143 0,6.64683 1.72759,11.93365 5.18452,15.86045 3.47604,3.92679 8.23173,6.02429 14.26704,6.29246 0.0764,1.60904 0.37287,3.11316 0.88855,4.51148 0.53477,1.39832 1.32694,2.6051 2.37739,3.62032 1.05046,1.03437 2.35963,1.82886 3.92575,2.38437 1.58523,0.57465 3.50469,0.86198 5.75838,0.86198 2.46379,0 4.26865,-0.0661 5.4146,-0.20025 1.16504,-0.13409 2.31966,-0.34524 3.4656,-0.63256 v -7.64245 h -1.05912 c -0.42018,0.22986 -1.11773,0.46841 -2.09179,0.71743 -0.95495,0.26818 -1.86172,0.40314 -2.72118,0.40314 -2.23459,0 -3.80161,-0.40226 -4.69926,-1.20677 -0.87856,-0.78536 -1.33694,-2.222 -1.37514,-4.3099 3.81982,-1.51326 6.77064,-4.07047 8.85244,-7.67163 2.1009,-3.62032 3.15223,-7.95027 3.15223,-12.98807 0,-6.91499 -1.8435,-12.35417 -5.52963,-16.31928 -3.68612,-3.98427 -8.73828,-5.97684 -15.15558,-5.97684 z m 88.52435,0 c -6.43639,0 -11.48723,2.00128 -15.15425,6.00469 -3.66703,3.98426 -5.50055,9.41475 -5.50055,16.29143 0,6.81923 1.83352,12.24101 5.50055,16.2636 3.66702,4.00342 8.71786,6.00469 15.15425,6.00469 6.4173,0 11.46946,-1.98257 15.15558,-5.94768 3.68613,-3.9651 5.52963,-9.4056 5.52963,-16.32061 0,-6.91499 -1.8435,-12.35417 -5.52963,-16.31928 -3.68612,-3.98427 -8.73828,-5.97684 -15.15558,-5.97684 z m -168.626,0.89115 v 42.7821 h 28.47721 v -8.15961 h -17.76172 v -34.62245 z m 31.8582,0 v 7.47006 h 6.12992 v 27.84198 h -6.12992 v 7.47006 h 22.97534 v -7.47006 h -6.12994 v -27.84198 h 6.12994 v -7.47006 z m 74.65795,0 v 27.3248 c 0,5.34428 1.53704,9.40428 4.61199,12.18177 3.09406,2.7775 7.50596,4.16669 13.23568,4.16669 5.90163,0 10.35217,-1.40791 13.35072,-4.22371 3.01766,-2.83495 4.52605,-6.88627 4.52605,-12.15393 v -27.29562 h -10.71416 v 26.69224 c 0,3.08397 -0.58296,5.32512 -1.74801,6.72345 -1.14595,1.39832 -2.95081,2.09793 -5.4146,2.09793 -2.52107,0 -4.3446,-0.72834 -5.47145,-2.18413 -1.10774,-1.45579 -1.66206,-3.66821 -1.66206,-6.63725 v -26.69224 z m 89.12598,0 v 42.7821 h 10.6573 v -15.68805 h 3.83848 l 11.88963,15.68805 h 13.06379 l -14.35298,-18.18779 c 2.46379,-1.20677 4.43055,-2.8245 5.90118,-4.85495 1.47063,-2.04959 2.20683,-4.71304 2.20683,-7.98857 0,-2.31776 -0.44971,-4.22282 -1.34737,-5.71692 -0.89765,-1.51325 -2.10957,-2.75878 -3.63749,-3.73569 -1.48973,-0.9386 -3.11404,-1.55201 -4.87116,-1.83934 -1.75711,-0.30648 -3.81982,-0.45884 -6.18811,-0.45884 z m -115.51139,7.1823 c 1.24144,0 2.4347,0.25859 3.58064,0.77578 1.16504,0.49803 2.20639,1.33128 3.12315,2.49975 0.87855,1.1493 1.57611,2.62469 2.09179,4.42527 0.53477,1.78143 0.80128,3.9464 0.80128,6.49403 0,2.68171 -0.24785,4.85538 -0.74443,6.52188 -0.49657,1.64733 -1.2028,3.09399 -2.11955,4.33908 -0.85946,1.14931 -1.88215,2.00126 -3.06629,2.55676 -1.18415,0.53635 -2.40605,0.80496 -3.66659,0.80496 -1.24144,0 -2.44469,-0.2499 -3.60973,-0.74793 -1.16505,-0.51719 -2.20639,-1.36915 -3.12315,-2.55678 -0.89765,-1.16845 -1.60388,-2.61511 -2.11956,-4.33907 -0.51567,-1.74312 -0.77351,-3.9268 -0.77351,-6.55106 0,-2.54763 0.26783,-4.74 0.8026,-6.5789 0.55388,-1.83889 1.2701,-3.31427 2.14865,-4.42527 0.99316,-1.20677 2.02451,-2.04003 3.09406,-2.49974 1.06955,-0.47888 2.2628,-0.71876 3.58064,-0.71876 z m 88.52435,0 c 1.24144,0 2.4347,0.25859 3.58064,0.77578 1.16505,0.49803 2.20639,1.33128 3.12315,2.49975 0.87856,1.1493 1.57611,2.62469 2.09179,4.42527 0.53478,1.78143 0.80128,3.9464 0.80128,6.49403 0,2.68171 -0.24785,4.85538 -0.74443,6.52188 -0.49657,1.64733 -1.2028,3.09399 -2.11956,4.33908 -0.85945,1.14931 -1.88214,2.00126 -3.06628,2.55676 -1.18414,0.53635 -2.40605,0.80496 -3.66659,0.80496 -1.24144,0 -2.44468,-0.2499 -3.60973,-0.74793 -1.16504,-0.51719 -2.20638,-1.36915 -3.12314,-2.55678 -0.89766,-1.16845 -1.60389,-2.61511 -2.11956,-4.33907 -0.51568,-1.74312 -0.77352,-3.9268 -0.77352,-6.55106 0,-2.54763 0.26783,-4.74 0.80261,-6.5789 0.55387,-1.83889 1.27008,-3.31427 2.14865,-4.42527 0.99315,-1.20677 2.0245,-2.04003 3.09405,-2.49974 1.06955,-0.47888 2.26281,-0.71876 3.58064,-0.71876 z m 37.64434,0.68957 h 3.58064 c 1.22234,0 2.24502,0.0388 3.06629,0.11538 0.82126,0.0766 1.56613,0.25904 2.23459,0.54637 0.95496,0.42141 1.63254,1.02479 2.03362,1.81015 0.42018,0.76621 0.63071,1.68566 0.63071,2.75835 0,1.20677 -0.1719,2.18368 -0.51568,2.93072 -0.32468,0.74706 -0.83169,1.38787 -1.51926,1.92422 -0.72576,0.59379 -1.61387,0.98737 -2.66432,1.17892 -1.03135,0.17239 -2.2919,0.25859 -3.78163,0.25859 h -3.06496 z" /></svg>
