<svg width="512" height="135" viewBox="0 0 512 135" fill="none" xml:space="preserve" xmlns="http://www.w3.org/2000/svg">
    <path d="M 72.356384,0 C 33.211699,0.02951408 -7.4640133,33.214505 1.170675,86.74545 l 24.16374,23.52044 7.139849,21.46773 32.532227,0.24325 c 3.613698,4.12944 8.571101,4.05803 11.99676,-0.39648 l 35.183079,0.0619 6.79116,-21.95561 22.95294,-22.207267 C 151.59208,40.107615 113.91675,0.05003 72.356384,0 Z M 199.01902,29.627971 c -10.19017,0 -18.22267,1.298262 -24.09647,3.895943 -5.82931,2.55289 -10.21162,6.09152 -13.14853,10.615065 -2.8924,4.478749 -4.33936,9.248952 -4.33936,14.309942 0,7.703463 2.84839,14.041496 8.5442,19.012917 5.65132,4.971415 15.10801,8.956998 28.36858,11.957762 8.09873,1.791498 13.26007,3.694199 15.485,5.709635 2.22493,2.015442 3.33724,4.299804 3.33724,6.852695 0,2.68725 -1.17924,5.061 -3.53766,7.12123 -2.31393,2.01544 -5.62947,3.02423 -9.94582,3.02423 -5.78482,0 -10.23405,-1.99349 -13.34895,-5.97958 -1.91344,-2.46331 -3.18238,-6.04594 -3.80536,-10.748626 l -28.76806,1.813698 c 0.84547,9.942828 4.4729,18.138168 10.88069,24.587578 6.40779,6.4494 17.93247,9.67447 34.57493,9.67447 9.47819,0 17.33266,-1.36636 23.56246,-4.09841 6.22979,-2.77681 11.07925,-6.82909 14.55013,-12.15881 3.47089,-5.32971 5.20698,-11.1527 5.20698,-17.46775 0,-5.3745 -1.31311,-10.234093 -3.93852,-14.578484 -2.58092,-4.344391 -6.74104,-7.972414 -12.48135,-10.883605 -5.69582,-2.955978 -15.15251,-5.867473 -28.36858,-8.733873 -5.33982,-1.119696 -8.72092,-2.328561 -10.14487,-3.627399 -1.46845,-1.254053 -2.20332,-2.664402 -2.20332,-4.231969 0,-2.149797 0.89012,-3.964512 2.67006,-5.442505 1.77995,-1.522774 4.42755,-2.283291 7.94293,-2.283291 4.27186,0 7.60879,1.007389 10.01171,3.022837 2.44742,2.015436 4.04965,5.240497 4.80612,9.674466 l 28.50173,-1.680131 c -1.24595,-10.211559 -5.16249,-17.646381 -11.74828,-22.304288 -6.54128,-4.70269 -16.06354,-7.053747 -28.56763,-7.053747 z m 56.93621,1.680139 v 98.4881 h 27.16602 V 95.532753 c 0,-6.494193 1.02398,-10.99482 3.07091,-13.502929 2.04693,-2.5081 4.71595,-3.762368 8.00883,-3.762368 2.98141,0 5.29573,0.940701 6.94216,2.821777 1.64645,1.836294 2.46965,4.993258 2.46965,9.472015 v 39.234962 h 27.30053 V 84.448096 c 0,-9.360595 -2.13629,-16.303075 -6.40813,-20.826612 -4.22736,-4.523547 -10.03389,-6.785205 -17.42064,-6.785205 -4.98384,0 -9.30059,0.828611 -12.94947,2.48575 -3.64888,1.657136 -7.32045,4.411146 -11.01384,8.26288 V 31.30811 Z m 183.28997,0 v 98.4881 h 27.23328 v -98.4881 z m 45.52152,0 v 98.4881 H 512 V 31.30811 Z M 383.77787,56.836279 c -12.50408,0 -22.31683,3.449239 -29.43659,10.346519 -7.07528,6.897284 -10.61301,15.921232 -10.61301,27.073333 2e-5,7.837819 1.75749,14.668199 5.27288,20.490579 3.55986,5.7776 8.03189,10.01005 13.41621,12.69731 5.38432,2.64247 12.77165,3.96342 22.16085,3.96342 10.81315,0 19.112,-1.54514 24.8968,-4.63547 5.78483,-3.13514 10.72398,-8.28559 14.81784,-15.4516 l -26.76517,-2.48575 c -1.69093,2.1498 -3.2704,3.65094 -4.73885,4.50191 -2.40291,1.34363 -4.93942,2.01475 -7.60934,2.01475 -4.22736,0 -7.654,-1.54513 -10.27941,-4.63547 -1.86893,-2.1498 -3.04819,-5.41886 -3.53765,-9.80805 h 54.46656 v -3.090313 c 0,-9.40538 -1.53528,-17.041684 -4.60568,-22.908849 -3.0704,-5.867166 -7.54243,-10.346502 -13.41624,-13.436843 -5.87379,-3.090341 -13.88352,-4.635476 -24.0292,-4.635476 z m 1.13392,16.19113 c 3.73789,0 6.74154,1.142181 9.01096,3.426348 2.31392,2.284168 3.73813,6.068269 4.2721,11.353192 h -26.76653 c 0.44499,-4.254814 1.49173,-7.457181 3.13816,-9.606981 2.58093,-3.448641 6.02896,-5.172559 10.34531,-5.172559 z" fill="#F40304" />
    <path d="M 68.056787,121.85041 39.447789,121.961 33.863683,104.31284 12.958258,83.541516 C 11.534883,76.417413 12.000209,61.884996 14.963459,56.604717 L 51.656275,98.854973 17.180838,49.873085 c -0.97876,-3.993797 7.806047,-17.58744 10.237879,-17.58744 L 59.981651,95.613767 32.585037,25.95336 c 1.802288,-2.62057 11.043046,-8.533265 15.335291,-9.587782 L 66.870749,94.762097 55.282203,13.640989 c 2.299613,-1.68437 10.2634,-2.946305 13.887648,-2.028382 l 3.27021,83.048213 3.775096,-82.968712 c 4.594216,-0.02764 12.418272,1.97784 13.915995,3.94548 L 78.31832,94.619494 97.261664,17.414718 c 2.722077,1.16523 14.018686,6.174067 14.186146,9.099626 L 84.294789,96.045132 117.35604,32.242726 c 1.94359,1.80144 10.49914,14.571686 10.49914,15.81034 L 92.479845,99.999228 131.26145,56.025076 c 2.94956,2.90957 3.21075,25.469486 1.43497,27.204974 l -20.49542,19.93545 -5.359,18.43557 -30.736173,0.22143 c -1.187752,3.22299 -6.800078,3.47968 -8.04904,0.0279 z" fill="#FAF70C" />
</svg>